<mxfile host="Electron" modified="2024-06-14T13:41:33.825Z" agent="Mozilla/5.0 (X11; Linux x86_64) AppleWebKit/537.36 (KHTML, like Gecko) draw.io/24.5.3 Chrome/124.0.6367.207 Electron/30.0.6 Safari/537.36" etag="IBVDrtmGwA5UR7yMq6VD" version="24.5.3" type="device">
  <diagram name="Page-1" id="musmEUe_VTrKHakKW-8W">
    <mxGraphModel dx="1282" dy="838" grid="1" gridSize="10" guides="1" tooltips="1" connect="1" arrows="1" fold="1" page="1" pageScale="1" pageWidth="850" pageHeight="1100" background="#ffffff" math="0" shadow="0">
      <root>
        <mxCell id="0" />
        <mxCell id="1" parent="0" />
        <mxCell id="1Rh4FRYXvjBePm9hTXcc-2" value="&lt;font color=&quot;#000000&quot;&gt;My Computer&lt;/font&gt;" style="text;html=1;align=center;verticalAlign=middle;resizable=0;points=[];autosize=1;fontStyle=1" vertex="1" parent="1">
          <mxGeometry x="365" y="10" width="100" height="30" as="geometry" />
        </mxCell>
        <mxCell id="1Rh4FRYXvjBePm9hTXcc-3" value="" style="shape=singleArrow;whiteSpace=wrap;html=1;arrowWidth=0.4;arrowSize=0.4;rotation=90;" vertex="1" parent="1">
          <mxGeometry x="395" y="125" width="40" height="10" as="geometry" />
        </mxCell>
        <mxCell id="1Rh4FRYXvjBePm9hTXcc-4" value="" style="whiteSpace=wrap;html=1;labelBorderColor=#000000;labelBackgroundColor=#FFFFFF;fillColor=none;strokeColor=#000000;strokeWidth=2;" vertex="1" parent="1">
          <mxGeometry x="80" y="170" width="640" height="910" as="geometry" />
        </mxCell>
        <mxCell id="1Rh4FRYXvjBePm9hTXcc-5" value="&lt;font color=&quot;#000000&quot; style=&quot;font-size: 14px;&quot;&gt;Kubernetes Cluster&lt;/font&gt;" style="text;html=1;align=center;verticalAlign=middle;resizable=0;points=[];autosize=1;strokeColor=none;fillColor=none;fontSize=14;fontStyle=1" vertex="1" parent="1">
          <mxGeometry x="81" y="170" width="140" height="30" as="geometry" />
        </mxCell>
        <mxCell id="1Rh4FRYXvjBePm9hTXcc-6" value="" style="image;sketch=0;aspect=fixed;html=1;points=[];align=center;fontSize=12;image=img/lib/mscae/Kubernetes.svg;" vertex="1" parent="1">
          <mxGeometry x="80" y="135" width="31.25" height="30" as="geometry" />
        </mxCell>
        <mxCell id="1Rh4FRYXvjBePm9hTXcc-7" value="" style="sketch=0;pointerEvents=1;shadow=0;dashed=0;html=1;labelPosition=center;verticalLabelPosition=bottom;verticalAlign=top;align=center;shape=mxgraph.mscae.system_center.admin_console" vertex="1" parent="1">
          <mxGeometry x="380" y="40" width="85" height="60" as="geometry" />
        </mxCell>
        <mxCell id="1Rh4FRYXvjBePm9hTXcc-8" value="" style="whiteSpace=wrap;html=1;labelBorderColor=#000000;labelBackgroundColor=#FFFFFF;fillColor=none;strokeColor=#000000;strokeWidth=2;" vertex="1" parent="1">
          <mxGeometry x="232.5" y="210" width="317.5" height="180" as="geometry" />
        </mxCell>
        <mxCell id="1Rh4FRYXvjBePm9hTXcc-9" value="&lt;font style=&quot;font-size: 13px;&quot; color=&quot;#000000&quot;&gt;Master Node&lt;/font&gt;" style="text;html=1;align=center;verticalAlign=middle;resizable=0;points=[];autosize=1;strokeColor=none;fillColor=none;fontSize=13;fontStyle=1" vertex="1" parent="1">
          <mxGeometry x="335" y="210" width="100" height="30" as="geometry" />
        </mxCell>
        <mxCell id="1Rh4FRYXvjBePm9hTXcc-10" value="" style="whiteSpace=wrap;html=1;labelBorderColor=#000000;labelBackgroundColor=#FFFFFF;fillColor=none;strokeColor=#000000;strokeWidth=2;" vertex="1" parent="1">
          <mxGeometry x="300" y="290" width="180" height="30" as="geometry" />
        </mxCell>
        <mxCell id="1Rh4FRYXvjBePm9hTXcc-11" value="&lt;font color=&quot;#000000&quot;&gt;API Server&lt;/font&gt;" style="text;html=1;align=center;verticalAlign=middle;resizable=0;points=[];autosize=1;strokeColor=none;fillColor=none;fontStyle=1" vertex="1" parent="1">
          <mxGeometry x="350" y="290" width="80" height="30" as="geometry" />
        </mxCell>
        <mxCell id="1Rh4FRYXvjBePm9hTXcc-12" value="" style="whiteSpace=wrap;html=1;labelBorderColor=#000000;labelBackgroundColor=#FFFFFF;fillColor=none;strokeColor=#000000;strokeWidth=2;" vertex="1" parent="1">
          <mxGeometry x="300" y="330" width="180" height="30" as="geometry" />
        </mxCell>
        <mxCell id="1Rh4FRYXvjBePm9hTXcc-13" value="&lt;font color=&quot;#000000&quot;&gt;Scheduler&lt;/font&gt;" style="text;html=1;align=center;verticalAlign=middle;resizable=0;points=[];autosize=1;strokeColor=none;fillColor=none;fontStyle=1" vertex="1" parent="1">
          <mxGeometry x="350" y="330" width="80" height="30" as="geometry" />
        </mxCell>
        <mxCell id="1Rh4FRYXvjBePm9hTXcc-14" value="" style="whiteSpace=wrap;html=1;labelBorderColor=#000000;labelBackgroundColor=#FFFFFF;fillColor=none;strokeColor=#000000;strokeWidth=2;" vertex="1" parent="1">
          <mxGeometry x="160" y="440" width="202" height="320" as="geometry" />
        </mxCell>
        <mxCell id="1Rh4FRYXvjBePm9hTXcc-15" value="" style="whiteSpace=wrap;html=1;labelBorderColor=#000000;labelBackgroundColor=#FFFFFF;fillColor=none;strokeColor=#000000;strokeWidth=2;" vertex="1" parent="1">
          <mxGeometry x="440" y="440" width="200" height="320" as="geometry" />
        </mxCell>
        <mxCell id="1Rh4FRYXvjBePm9hTXcc-16" value="&lt;font color=&quot;#000000&quot;&gt;Worker Node 1&lt;/font&gt;" style="text;html=1;align=center;verticalAlign=middle;resizable=0;points=[];autosize=1;strokeColor=none;fillColor=none;fontStyle=1" vertex="1" parent="1">
          <mxGeometry x="215" y="440" width="100" height="30" as="geometry" />
        </mxCell>
        <mxCell id="1Rh4FRYXvjBePm9hTXcc-17" value="&lt;font color=&quot;#000000&quot;&gt;Worker Node 3&lt;/font&gt;" style="text;html=1;align=center;verticalAlign=middle;resizable=0;points=[];autosize=1;strokeColor=none;fillColor=none;fontStyle=1" vertex="1" parent="1">
          <mxGeometry x="486" y="440" width="100" height="30" as="geometry" />
        </mxCell>
        <mxCell id="1Rh4FRYXvjBePm9hTXcc-22" value="" style="edgeStyle=orthogonalEdgeStyle;rounded=0;orthogonalLoop=1;jettySize=auto;html=1;" edge="1" parent="1" source="1Rh4FRYXvjBePm9hTXcc-18" target="1Rh4FRYXvjBePm9hTXcc-15">
          <mxGeometry relative="1" as="geometry" />
        </mxCell>
        <mxCell id="1Rh4FRYXvjBePm9hTXcc-18" value="" style="whiteSpace=wrap;html=1;labelBorderColor=#000000;labelBackgroundColor=#FFFFFF;fillColor=none;strokeColor=#000000;strokeWidth=2;" vertex="1" parent="1">
          <mxGeometry x="200" y="520" width="120" height="200" as="geometry" />
        </mxCell>
        <mxCell id="1Rh4FRYXvjBePm9hTXcc-19" value="&lt;font color=&quot;#000000&quot;&gt;&lt;b&gt;Pod 1&lt;/b&gt;&lt;/font&gt;&lt;div&gt;&lt;font color=&quot;#000000&quot;&gt;&lt;b&gt;(Blog Frontend)&lt;/b&gt;&lt;/font&gt;&lt;/div&gt;" style="text;html=1;align=center;verticalAlign=middle;resizable=0;points=[];autosize=1;strokeColor=none;fillColor=none;" vertex="1" parent="1">
          <mxGeometry x="205" y="520" width="110" height="40" as="geometry" />
        </mxCell>
        <mxCell id="1Rh4FRYXvjBePm9hTXcc-20" value="&lt;font color=&quot;#000000&quot;&gt;&lt;b&gt;Pod 3&lt;/b&gt;&lt;/font&gt;&lt;div&gt;&lt;font color=&quot;#000000&quot;&gt;&lt;b&gt;(E-Com&lt;/b&gt;&lt;/font&gt;&lt;b style=&quot;color: rgb(0, 0, 0); background-color: initial;&quot;&gt;&amp;nbsp;Backend)&lt;/b&gt;&lt;/div&gt;" style="text;html=1;align=center;verticalAlign=middle;resizable=0;points=[];autosize=1;strokeColor=none;fillColor=none;" vertex="1" parent="1">
          <mxGeometry x="476" y="520" width="120" height="40" as="geometry" />
        </mxCell>
        <mxCell id="1Rh4FRYXvjBePm9hTXcc-21" value="" style="whiteSpace=wrap;html=1;labelBorderColor=#000000;labelBackgroundColor=#FFFFFF;fillColor=none;strokeColor=#000000;strokeWidth=2;" vertex="1" parent="1">
          <mxGeometry x="480" y="520" width="120" height="200" as="geometry" />
        </mxCell>
        <mxCell id="1Rh4FRYXvjBePm9hTXcc-23" value="" style="whiteSpace=wrap;html=1;labelBorderColor=#000000;labelBackgroundColor=#FFFFFF;fillColor=none;strokeColor=#000000;strokeWidth=2;" vertex="1" parent="1">
          <mxGeometry x="215" y="600" width="90" height="40" as="geometry" />
        </mxCell>
        <mxCell id="1Rh4FRYXvjBePm9hTXcc-24" value="" style="whiteSpace=wrap;html=1;labelBorderColor=#000000;labelBackgroundColor=#FFFFFF;fillColor=none;strokeColor=#000000;strokeWidth=2;" vertex="1" parent="1">
          <mxGeometry x="215" y="660" width="90" height="40" as="geometry" />
        </mxCell>
        <mxCell id="1Rh4FRYXvjBePm9hTXcc-25" value="" style="whiteSpace=wrap;html=1;labelBorderColor=#000000;labelBackgroundColor=#FFFFFF;fillColor=none;strokeColor=#000000;strokeWidth=2;" vertex="1" parent="1">
          <mxGeometry x="496" y="600" width="90" height="40" as="geometry" />
        </mxCell>
        <mxCell id="1Rh4FRYXvjBePm9hTXcc-26" value="" style="whiteSpace=wrap;html=1;labelBorderColor=#000000;labelBackgroundColor=#FFFFFF;fillColor=none;strokeColor=#000000;strokeWidth=2;" vertex="1" parent="1">
          <mxGeometry x="496" y="660" width="90" height="40" as="geometry" />
        </mxCell>
        <mxCell id="1Rh4FRYXvjBePm9hTXcc-27" value="&lt;b&gt;&lt;font color=&quot;#000000&quot;&gt;Container&lt;/font&gt;&lt;/b&gt;&lt;div&gt;&lt;b&gt;&lt;font color=&quot;#000000&quot;&gt;Blog App&lt;/font&gt;&lt;/b&gt;&lt;/div&gt;" style="text;html=1;align=center;verticalAlign=middle;resizable=0;points=[];autosize=1;strokeColor=none;fillColor=none;" vertex="1" parent="1">
          <mxGeometry x="220" y="600" width="80" height="40" as="geometry" />
        </mxCell>
        <mxCell id="1Rh4FRYXvjBePm9hTXcc-28" value="&lt;b&gt;&lt;font color=&quot;#000000&quot;&gt;Container&lt;/font&gt;&lt;/b&gt;&lt;div&gt;&lt;b&gt;&lt;font color=&quot;#000000&quot;&gt;API App&lt;/font&gt;&lt;/b&gt;&lt;/div&gt;" style="text;html=1;align=center;verticalAlign=middle;resizable=0;points=[];autosize=1;strokeColor=none;fillColor=none;" vertex="1" parent="1">
          <mxGeometry x="500" y="600" width="80" height="40" as="geometry" />
        </mxCell>
        <mxCell id="1Rh4FRYXvjBePm9hTXcc-29" value="&lt;font color=&quot;#000000&quot;&gt;&lt;b&gt;Volume&lt;/b&gt;&lt;/font&gt;&lt;div&gt;&lt;font color=&quot;#000000&quot;&gt;&lt;b&gt;(Blog Data)&lt;/b&gt;&lt;/font&gt;&lt;/div&gt;" style="text;html=1;align=center;verticalAlign=middle;resizable=0;points=[];autosize=1;strokeColor=none;fillColor=none;" vertex="1" parent="1">
          <mxGeometry x="215" y="660" width="90" height="40" as="geometry" />
        </mxCell>
        <mxCell id="1Rh4FRYXvjBePm9hTXcc-31" value="&lt;font color=&quot;#000000&quot;&gt;&lt;b&gt;Volume&lt;/b&gt;&lt;/font&gt;&lt;div&gt;&lt;font color=&quot;#000000&quot;&gt;&lt;b&gt;(E-Com DB)&lt;/b&gt;&lt;/font&gt;&lt;/div&gt;" style="text;html=1;align=center;verticalAlign=middle;resizable=0;points=[];autosize=1;strokeColor=none;fillColor=none;" vertex="1" parent="1">
          <mxGeometry x="495" y="660" width="90" height="40" as="geometry" />
        </mxCell>
        <mxCell id="1Rh4FRYXvjBePm9hTXcc-32" value="" style="whiteSpace=wrap;html=1;labelBorderColor=#000000;labelBackgroundColor=#FFFFFF;fillColor=none;strokeColor=#000000;strokeWidth=2;" vertex="1" parent="1">
          <mxGeometry x="160" y="800" width="201" height="240" as="geometry" />
        </mxCell>
        <mxCell id="1Rh4FRYXvjBePm9hTXcc-33" value="&lt;font color=&quot;#000000&quot;&gt;Worker Node 2&lt;/font&gt;" style="text;html=1;align=center;verticalAlign=middle;resizable=0;points=[];autosize=1;strokeColor=none;fillColor=none;fontStyle=1" vertex="1" parent="1">
          <mxGeometry x="201" y="800" width="100" height="30" as="geometry" />
        </mxCell>
        <mxCell id="1Rh4FRYXvjBePm9hTXcc-34" value="" style="whiteSpace=wrap;html=1;labelBorderColor=#000000;labelBackgroundColor=#FFFFFF;fillColor=none;strokeColor=#000000;strokeWidth=2;" vertex="1" parent="1">
          <mxGeometry x="201" y="880" width="119" height="120" as="geometry" />
        </mxCell>
        <mxCell id="1Rh4FRYXvjBePm9hTXcc-35" value="&lt;font color=&quot;#000000&quot;&gt;&lt;b&gt;Pod 2&lt;/b&gt;&lt;/font&gt;&lt;div&gt;&lt;font color=&quot;#000000&quot;&gt;&lt;b&gt;(E-Com&lt;/b&gt;&lt;/font&gt;&lt;b style=&quot;color: rgb(0, 0, 0); background-color: initial;&quot;&gt;&amp;nbsp;Frontend)&lt;/b&gt;&lt;/div&gt;" style="text;html=1;align=center;verticalAlign=middle;resizable=0;points=[];autosize=1;strokeColor=none;fillColor=none;" vertex="1" parent="1">
          <mxGeometry x="195" y="880" width="130" height="40" as="geometry" />
        </mxCell>
        <mxCell id="1Rh4FRYXvjBePm9hTXcc-36" value="&lt;font color=&quot;#000000&quot;&gt;&lt;b&gt;Container&lt;/b&gt;&lt;/font&gt;&lt;div&gt;&lt;font color=&quot;#000000&quot;&gt;&lt;b&gt;Web App&lt;/b&gt;&lt;/font&gt;&lt;/div&gt;" style="text;html=1;align=center;verticalAlign=middle;resizable=0;points=[];autosize=1;strokeColor=none;fillColor=none;" vertex="1" parent="1">
          <mxGeometry x="221" y="950" width="80" height="40" as="geometry" />
        </mxCell>
        <mxCell id="1Rh4FRYXvjBePm9hTXcc-38" value="" style="whiteSpace=wrap;html=1;labelBorderColor=#000000;labelBackgroundColor=#FFFFFF;fillColor=none;strokeColor=#000000;strokeWidth=2;" vertex="1" parent="1">
          <mxGeometry x="215" y="950" width="90" height="40" as="geometry" />
        </mxCell>
        <mxCell id="1Rh4FRYXvjBePm9hTXcc-39" value="" style="image;sketch=0;aspect=fixed;html=1;points=[];align=center;fontSize=12;image=img/lib/mscae/Docker.svg;direction=east;" vertex="1" parent="1">
          <mxGeometry x="200" y="850" width="36.59" height="30" as="geometry" />
        </mxCell>
        <mxCell id="1Rh4FRYXvjBePm9hTXcc-40" value="" style="image;sketch=0;aspect=fixed;html=1;points=[];align=center;fontSize=12;image=img/lib/mscae/Docker.svg;direction=east;" vertex="1" parent="1">
          <mxGeometry x="200" y="490" width="36.59" height="30" as="geometry" />
        </mxCell>
        <mxCell id="1Rh4FRYXvjBePm9hTXcc-42" value="" style="edgeStyle=orthogonalEdgeStyle;rounded=0;orthogonalLoop=1;jettySize=auto;html=1;" edge="1" parent="1" source="1Rh4FRYXvjBePm9hTXcc-41" target="1Rh4FRYXvjBePm9hTXcc-21">
          <mxGeometry relative="1" as="geometry" />
        </mxCell>
        <mxCell id="1Rh4FRYXvjBePm9hTXcc-41" value="" style="image;sketch=0;aspect=fixed;html=1;points=[];align=center;fontSize=12;image=img/lib/mscae/Docker.svg;direction=east;" vertex="1" parent="1">
          <mxGeometry x="480" y="490" width="36.59" height="30" as="geometry" />
        </mxCell>
      </root>
    </mxGraphModel>
  </diagram>
</mxfile>
